<svg width="21" height="19" viewBox="0 0 21 19" fill="none" xmlns="http://www.w3.org/2000/svg">
<rect y="10.6667" width="20.3636" height="7.75758" rx="3.87879" fill="#B2B2B2"/>
<path fill-rule="evenodd" clip-rule="evenodd" d="M3.87879 0C1.73659 0 0 1.73659 0 3.87879C0 6.02098 1.73659 7.75758 3.87878 7.75758H16.4848C18.627 7.75758 20.3636 6.02098 20.3636 3.87879C20.3636 1.73659 18.627 0 16.4849 0H3.87879ZM3.42834 5.87878C4.2172 5.87878 4.85669 5.28907 4.85669 4.56163C4.85669 3.83419 4.2172 3.24448 3.42834 3.24448C2.63949 3.24448 2 3.83419 2 4.56163C2 5.28907 2.63949 5.87878 3.42834 5.87878Z" fill="#B2B2B2"/>
</svg>
